<?xml version="1.0" encoding="iso-8859-1"?>
<!-- Generator: Adobe Illustrator 19.0.0, SVG Export Plug-In . SVG Version: 6.00 Build 0)  -->
<svg version="1.1" id="Capa_1" xmlns="http://www.w3.org/2000/svg" xmlns:xlink="http://www.w3.org/1999/xlink" x="0px" y="0px"
	 viewBox="0 0 512 512" style="enable-background:new 0 0 512 512;" xml:space="preserve">
<g>
	<g>
		<path fill="#fff" d="M187.314,269.873l-48.604-47.41l48.604-47.409c2.885-2.815,2.942-7.438,0.128-10.324
			c-2.815-2.887-7.437-2.945-10.324-0.128l-53.962,52.635c-1.408,1.374-2.203,3.258-2.203,5.226s0.795,3.852,2.203,5.226
			l53.962,52.636c1.42,1.385,3.26,2.075,5.097,2.075c1.899,0,3.797-0.736,5.227-2.203
			C190.257,277.311,190.2,272.689,187.314,269.873z"/>
	</g>
</g>
<g>
	<g>
		<path fill="#fff" d="M379.06,217.238l-53.963-52.636c-2.889-2.816-7.511-2.758-10.324,0.129c-2.815,2.887-2.758,7.508,0.128,10.324
			l48.605,47.409l-48.605,47.409c-2.886,2.816-2.943,7.438-0.128,10.324c1.431,1.467,3.328,2.203,5.227,2.203
			c1.837,0,3.677-0.69,5.097-2.074l53.963-52.636c1.408-1.374,2.203-3.258,2.203-5.226
			C381.263,220.496,380.468,218.611,379.06,217.238z"/>
	</g>
</g>
<g>
	<g>
		<path fill="#fff" d="M287.743,141.765c-3.764-1.458-7.99,0.413-9.444,4.173l-60.105,155.26c-1.455,3.76,0.413,7.988,4.172,9.444
			c0.867,0.336,1.758,0.494,2.634,0.494c2.928,0,5.69-1.773,6.81-4.667l60.105-155.26
			C293.371,147.448,291.503,143.221,287.743,141.765z"/>
	</g>
</g>
<g>
	<g>
		<path fill="#fff" d="M500.905,48.556c-7.156-7.156-16.67-11.097-26.79-11.097L37.894,37.45c-0.001,0,0,0-0.001,0
			c-20.889,0-37.885,16.995-37.886,37.885L0,361.816c-0.001,10.12,3.94,19.634,11.095,26.79c7.156,7.156,16.67,11.097,26.79,11.097
			l41.407,0.001c4.032,0,7.301-3.269,7.301-7.301s-3.268-7.301-7.301-7.301l-41.407-0.001c-6.22,0-12.067-2.422-16.464-6.821
			c-4.398-4.398-6.82-10.245-6.82-16.465l0.007-286.483c0.001-12.838,10.447-23.283,23.286-23.283l436.221,0.01
			c6.22,0,12.067,2.423,16.464,6.821c4.398,4.398,6.82,10.245,6.82,16.465l-0.007,286.483
			c-0.001,12.839-10.447,23.285-23.286,23.285l-164.78-0.004h-0.001l-106.659-0.003c-0.001,0-0.002,0-0.003,0l-86.021-0.002
			c-4.032,0-7.301,3.269-7.301,7.301s3.268,7.301,7.301,7.301l76.214,0.002l-7.715,25.73l-21.884-0.001
			c-12.947,0-23.481,10.533-23.481,23.48v14.712c0,6.019,4.897,10.916,10.916,10.916l210.607,0.005
			c6.016,0,10.914-4.896,10.917-10.916v-14.712c0-12.947-10.533-23.48-23.48-23.48l-21.884-0.001l-7.715-25.73l154.971,0.004
			c20.889,0,37.886-16.995,37.887-37.885L512,75.346C512.001,65.226,508.06,55.711,500.905,48.556z M208.098,399.707l90.816,0.002
			h4.979l7.714,25.73l-111.223-0.003L208.098,399.707z M348.734,440.042c4.896,0,8.879,3.983,8.879,8.879v11.027l-203.237-0.005
			v-11.027c0-4.896,3.983-8.879,8.88-8.879c0.001,0,0,0,0.001,0L348.734,440.042z"/>
	</g>
</g>
<g>
	<g>
		<path fill="#fff" d="M457.211,71.729l-402.414-0.01c-9.799,0-17.772,7.972-17.773,17.772l-0.006,233.554c0,9.564,7.782,17.347,17.348,17.348
			l403.264,0.01c9.565,0,17.347-7.783,17.347-17.348l0.005-207.061c0-0.004,0.001-0.009,0.001-0.013V89.502
			C474.983,79.701,467.01,71.729,457.211,71.729z M460.382,108.68l-67.729-0.002c-4.032,0-7.301,3.269-7.301,7.301
			s3.268,7.301,7.301,7.301l67.728,0.002l-0.005,199.774c0,1.514-1.232,2.746-2.746,2.746l-403.263-0.01
			c-1.516-0.002-2.748-1.234-2.748-2.748l0.005-199.774l303.693,0.007c4.031,0,7.301-3.269,7.301-7.301
			c0-4.032-3.268-7.301-7.301-7.301l-303.693-0.006V89.492c0-1.531,1.089-2.812,2.534-3.108c0.206-0.042,0.42-0.065,0.639-0.065
			l402.413,0.01c1.749,0,3.172,1.423,3.172,3.172V108.68z"/>
	</g>
</g>
<g>
</g>
<g>
</g>
<g>
</g>
<g>
</g>
<g>
</g>
<g>
</g>
<g>
</g>
<g>
</g>
<g>
</g>
<g>
</g>
<g>
</g>
<g>
</g>
<g>
</g>
<g>
</g>
<g>
</g>
</svg>
